<svg id="Layer_1" data-name="Layer 1" xmlns="http://www.w3.org/2000/svg" width="64.6" height="19.6" viewBox="0 0 64.6 19.6">
  <title>loading_screen_logo_vet</title>
  <g id="Base">
    <path d="M27.1,11H24.9V2.3h2.2Z" style="fill: #1d1d1b"/>
    <path d="M28.6,2.3h2.2L35,7.6h0V2.3h2.2V11H35L30.9,5.7h0V11H28.6Z" style="fill: #1d1d1b"/>
    <path d="M41,4.3V5.7h2.5V7.6H41V11H38.8V2.3h5V4.2H41Z" style="fill: #1d1d1b"/>
    <path d="M47.3,4.3V5.7h2.5V7.6H47.3V9.1H50V11H45V2.3h5V4.2H47.3Z" style="fill: #1d1d1b"/>
    <path d="M57.6,5.3a2.61,2.61,0,0,0-2-1,2.26,2.26,0,0,0-2.3,2.3v.1a2.31,2.31,0,0,0,2.1,2.4h.2a2.32,2.32,0,0,0,1.9-.9v2.7a6.47,6.47,0,0,1-2,.4,4.72,4.72,0,0,1-3.2-1.2,4.53,4.53,0,0,1-1.4-3.3,4.38,4.38,0,0,1,1.3-3.2,4.71,4.71,0,0,1,3.3-1.4,7.79,7.79,0,0,1,2.1.4Z" style="fill: #1d1d1b"/>
    <path d="M62.7,11H60.5V4.3H58.6v-2h6V4.2H62.7Z" style="fill: #1d1d1b"/>
    <path d="M6.9,9.8a3,3,0,0,1-3-3,3.08,3.08,0,0,1,3-3h4.8V9.9H6.9Z" style="fill: #1d1d1b"/>
    <path d="M17.2,9.8a3,3,0,0,0,3-3,3.08,3.08,0,0,0-3-3H12.5V9.9h4.7Z" style="fill: #1d1d1b"/>
    <path d="M7.8,1.7A.9.9,0,1,1,6.9.8h0a.9.9,0,0,1,.9.9Z" style="fill: #1d1d1b"/>
    <path d="M6.6,3.1a.27.27,0,0,1,.3-.3h0a.27.27,0,0,1,.3.3h0a.27.27,0,0,1-.3.3h0A.27.27,0,0,1,6.6,3.1Zm-.9-.2a.3.3,0,0,1,0-.4h0a.3.3,0,0,1,.4,0h0a.3.3,0,0,1,0,.4h0C6,3,6,3,5.9,3h0C5.8,3,5.7,3,5.7,2.9Zm2,0a.3.3,0,0,1,0-.4h0a.3.3,0,0,1,.4,0h0a.3.3,0,0,1,0,.4h0C8,2.9,8,3,7.9,3h0a.35.35,0,0,1-.2-.1ZM5.2,1.7a.27.27,0,0,1,.3-.3h0a.27.27,0,0,1,.3.3h0a.32.32,0,0,1-.3.3h0a.27.27,0,0,1-.3-.3ZM8,1.7H8a.27.27,0,0,1,.3-.3h0a.27.27,0,0,1,.3.3h0c0,.1-.1.3-.2.3H8.3A.32.32,0,0,1,8,1.7ZM5.7.9a.3.3,0,0,1,0-.4h0a.3.3,0,0,1,.4,0h0a.3.3,0,0,1,0,.4h0C6,1,6,1,5.9,1h0C5.8,1,5.7,1,5.7.9Zm2,0h0a.3.3,0,0,1,0-.4h0a.3.3,0,0,1,.4,0h0a.3.3,0,0,1,0,.4h0C8,1,8,1,7.9,1h0c-.1,0-.2,0-.2-.1ZM6.6.3A.27.27,0,0,1,6.9,0h0a.32.32,0,0,1,.3.3h0a.27.27,0,0,1-.3.3h0A.32.32,0,0,1,6.6.3Z" style="fill: #1d1d1b"/>
    <path d="M11.8,1.7a.9.9,0,1,1-.9-.9h0a1.06,1.06,0,0,1,.9.9Z" style="fill: #1d1d1b"/>
    <path d="M10.6,3.1a.27.27,0,0,1,.3-.3h0a.27.27,0,0,1,.3.3h0a.27.27,0,0,1-.3.3h0A.27.27,0,0,1,10.6,3.1Zm-1-.2a.3.3,0,0,1,0-.4h0a.3.3,0,0,1,.4,0h0a.3.3,0,0,1,0,.4h0a.35.35,0,0,1-.2.1h0A.35.35,0,0,0,9.6,2.9Zm2,0a.3.3,0,0,1,0-.4h0a.3.3,0,0,1,.4,0h0a.3.3,0,0,1,0,.4h0a.35.35,0,0,1-.2.1h0a.35.35,0,0,0-.2-.1ZM9.1,1.7a.27.27,0,0,1,.3-.3h0a.27.27,0,0,1,.3.3h0c0,.1-.1.3-.2.3h0c-.2,0-.4-.1-.4-.3Zm2.9,0h0a.27.27,0,0,1,.3-.3h0a.27.27,0,0,1,.3.3h0a.32.32,0,0,1-.3.3h0a.32.32,0,0,1-.3-.3ZM9.6.9a.3.3,0,0,1,0-.4h0a.3.3,0,0,1,.4,0h0a.3.3,0,0,1,0,.4h0a.35.35,0,0,1-.2.1h0A.31.31,0,0,1,9.6.9Zm2,0h0a.3.3,0,0,1,0-.4h0a.3.3,0,0,1,.4,0h0a.3.3,0,0,1,0,.4h0c0,.1-.1.1-.2.1h0a.31.31,0,0,1-.2-.1Zm-1-.6a.27.27,0,0,1,.3-.3h0a.27.27,0,0,1,.3.3h0a.27.27,0,0,1-.3.3h0c-.2,0-.4-.2-.3-.3Z" style="fill: #1d1d1b"/>
    <path d="M7.9,11.7a.9.9,0,1,1-.9-.9.9.9,0,0,1,.9.9Z" style="fill: #1d1d1b"/>
    <path d="M6.7,13.1a.27.27,0,0,1,.3-.3H7a.27.27,0,0,1,.3.3h0a.27.27,0,0,1-.3.3H7A.27.27,0,0,1,6.7,13.1Zm-.9-.2a.3.3,0,0,1,0-.4h0a.3.3,0,0,1,.4,0h0a.3.3,0,0,1,0,.4h0c0,.1-.1.1-.2.1H6C5.9,13,5.9,12.9,5.8,12.9Zm2,0a.3.3,0,0,1,0-.4h0a.3.3,0,0,1,.4,0h0a.3.3,0,0,1,0,.4h0c0,.1-.1.1-.2.1H8c-.1,0-.1-.1-.2-.1ZM5.3,11.7a.27.27,0,0,1,.3-.3h0a.27.27,0,0,1,.3.3h0a.27.27,0,0,1-.3.3h0a.32.32,0,0,1-.3-.3Zm2.8,0h0a.32.32,0,0,1,.3-.3h0a.32.32,0,0,1,.3.3h0a.27.27,0,0,1-.3.3h0a.32.32,0,0,1-.3-.3Zm-2.3-.8a.3.3,0,0,1,0-.4h0a.3.3,0,0,1,.4,0h0a.3.3,0,0,1,0,.4h0c0,.1-.1.1-.2.1H6c-.1,0-.1,0-.2-.1Zm2,0h0a.3.3,0,0,1,0-.4h0a.3.3,0,0,1,.4,0h0a.3.3,0,0,1,0,.4h0c0,.1-.1.1-.2.1H8c-.1,0-.1,0-.2-.1Zm-1-.6c-.1-.2.1-.3.2-.3H7a.27.27,0,0,1,.3.3h0a.27.27,0,0,1-.3.3H7c-.1,0-.3-.2-.2-.3Z" style="fill: #1d1d1b"/>
    <path d="M11.8,11.7a.9.9,0,1,1-.9-.9h0A1.06,1.06,0,0,1,11.8,11.7Z" style="fill: #1d1d1b"/>
    <path d="M10.6,13.1a.27.27,0,0,1,.3-.3h0a.27.27,0,0,1,.3.3h0a.27.27,0,0,1-.3.3h0A.27.27,0,0,1,10.6,13.1Zm-1-.2a.3.3,0,0,1,0-.4h0a.3.3,0,0,1,.4,0h0a.3.3,0,0,1,0,.4h0a.35.35,0,0,1-.2.1h0A.35.35,0,0,0,9.6,12.9Zm2,0a.3.3,0,0,1,0-.4h0a.3.3,0,0,1,.4,0h0a.3.3,0,0,1,0,.4h0c-.1,0-.1.1-.2.1h0a.35.35,0,0,0-.2-.1ZM9.2,11.7a.27.27,0,0,1,.3-.3h0a.27.27,0,0,1,.3.3h0a.27.27,0,0,1-.3.3h0c-.2,0-.4-.1-.3-.3Zm2.8,0h0a.32.32,0,0,1,.3-.3h0a.27.27,0,0,1,.3.3h0a.27.27,0,0,1-.3.3h0a.32.32,0,0,1-.3-.3Zm-2.3-.8a.3.3,0,0,1,0-.4h0a.3.3,0,0,1,.4,0h0a.3.3,0,0,1,0,.4h0a.35.35,0,0,0-.2.1h0c-.1,0-.2,0-.2-.1Zm2,0h0a.3.3,0,0,1,0-.4h0a.3.3,0,0,1,.4,0h0a.3.3,0,0,1,0,.4h0a.31.31,0,0,1-.2.1h0c-.1,0-.2,0-.2-.1Zm-1.1-.6a.27.27,0,0,1,.3-.3h0a.27.27,0,0,1,.3.3h0a.27.27,0,0,1-.3.3h0a.27.27,0,0,1-.3-.3Z" style="fill: #1d1d1b"/>
    <path d="M2.6,6.7a.9.9,0,1,1-.9-.9h0A.9.9,0,0,1,2.6,6.7Z" style="fill: #1d1d1b"/>
    <path d="M1.4,8.1a.32.32,0,0,1,.3-.3h0a.32.32,0,0,1,.3.3v.1H2a.32.32,0,0,1-.3.3h0c-.1-.1-.3-.2-.3-.4ZM.5,7.9a.3.3,0,0,1,0-.4h0a.3.3,0,0,1,.4,0h0a.3.3,0,0,1,0,.4h0C.8,8,.8,8,.7,8h0C.6,8,.6,8,.5,7.9Zm2,0a.3.3,0,0,1,0-.4h0a.3.3,0,0,1,.4,0h0a.3.3,0,0,1,0,.4h0c-.1.1-.1.1-.2.1h0c-.1,0-.2,0-.2-.1ZM0,6.7a.27.27,0,0,1,.3-.3h0a.27.27,0,0,1,.3.3h0A.32.32,0,0,1,.3,7h0A.27.27,0,0,1,0,6.7Zm2.8,0h0a.27.27,0,0,1,.3-.3h0a.27.27,0,0,1,.3.3h0a.27.27,0,0,1-.3.3h0a.27.27,0,0,1-.3-.3ZM.5,5.9a.3.3,0,0,1,0-.4h0a.3.3,0,0,1,.4,0h0a.3.3,0,0,1,0,.4h0C.8,6,.8,6,.7,6h0C.6,6,.5,6,.5,5.9Zm2,0h0a.3.3,0,0,1,0-.4h0a.3.3,0,0,1,.4,0h0a.3.3,0,0,1,0,.4h0c-.1.1-.1.1-.2.1h0c-.1,0-.2,0-.2-.1ZM1.4,5.3c0-.1.1-.3.2-.3h.1a.32.32,0,0,1,.3.3v.1H2a.27.27,0,0,1-.3.3h0c-.1-.1-.3-.2-.3-.4Z" style="fill: #1d1d1b"/>
    <path d="M4.2,3.1a.9.9,0,1,1-.9-.9h0C3.8,2.1,4.2,2.6,4.2,3.1Z" style="fill: #1d1d1b"/>
    <path d="M3,4.5a.27.27,0,0,1,.3-.3h0a.27.27,0,0,1,.3.3h0a.27.27,0,0,1-.3.3h0A.32.32,0,0,1,3,4.5Zm-.9-.2a.3.3,0,0,1,0-.4h0a.3.3,0,0,1,.4,0h0a.3.3,0,0,1,0,.4h0c-.1,0-.1.1-.2.1h0c-.1-.1-.1-.1-.2-.1Zm2,0a.3.3,0,0,1,0-.4h0a.3.3,0,0,1,.4,0h0a.3.3,0,0,1,0,.4h0c-.1,0-.1.1-.2.1h0c-.1-.1-.1-.1-.2-.1ZM1.6,3.1a.27.27,0,0,1,.3-.3h0a.27.27,0,0,1,.3.3h0a.27.27,0,0,1-.3.3h0a.45.45,0,0,1-.3-.3Zm2.8,0h0a.32.32,0,0,1,.3-.3h0c.2,0,.3.1.3.2H5a.32.32,0,0,1-.3.3h0C4.6,3.3,4.4,3.2,4.4,3.1ZM2.1,2.3a.3.3,0,0,1,0-.4h0a.3.3,0,0,1,.4,0h0a.3.3,0,0,1,0,.4h0c-.1,0-.1.1-.2.1h0A.35.35,0,0,0,2.1,2.3Zm2,0h0a.3.3,0,0,1,0-.4h0a.3.3,0,0,1,.4,0h0a.3.3,0,0,1,0,.4h0a.35.35,0,0,1-.2.1h0c-.1,0-.1-.1-.2-.1ZM3,1.7a.27.27,0,0,1,.3-.3h0a.27.27,0,0,1,.3.3h0a.27.27,0,0,1-.3.3h0Q3,1.85,3,1.7Z" style="fill: #1d1d1b"/>
    <path d="M4.2,10.4a.9.9,0,1,1-.9-.9h0C3.8,9.4,4.2,9.9,4.2,10.4Z" style="fill: #1d1d1b"/>
    <path d="M3,11.8a.27.27,0,0,1,.3-.3h0a.27.27,0,0,1,.3.3h0a.27.27,0,0,1-.3.3h0A.32.32,0,0,1,3,11.8Zm-.9-.2a.3.3,0,0,1,0-.4h0a.3.3,0,0,1,.4,0h0a.3.3,0,0,1,0,.4h0c-.1,0-.1.1-.2.1h0c-.1-.1-.1-.1-.2-.1Zm2,0a.3.3,0,0,1,0-.4h0a.3.3,0,0,1,.4,0h0a.3.3,0,0,1,0,.4h0c-.1,0-.1.1-.2.1h0c-.1-.1-.1-.1-.2-.1ZM1.6,10.4a.27.27,0,0,1,.3-.3h0a.27.27,0,0,1,.3.3h0a.27.27,0,0,1-.3.3h0q-.3-.15-.3-.3Zm2.8,0h0a.32.32,0,0,1,.3-.3h0a.32.32,0,0,1,.3.3H5a.32.32,0,0,1-.3.3h0c-.1-.1-.3-.2-.3-.3ZM2.1,9.6a.3.3,0,0,1,0-.4h0a.3.3,0,0,1,.4,0h0a.3.3,0,0,1,0,.4h0c-.1,0-.1.1-.2.1h0c-.1-.1-.1-.1-.2-.1Zm2,0h0a.3.3,0,0,1,0-.4h0a.3.3,0,0,1,.4,0h0a.3.3,0,0,1,0,.4h0c-.1,0-.1.1-.2.1h0c-.1,0-.1-.1-.2-.1ZM3,9a.27.27,0,0,1,.3-.3h0c.2,0,.3.1.3.2h0a.27.27,0,0,1-.3.3h0c-.1.1-.3,0-.3-.2Z" style="fill: #1d1d1b"/>
  </g>
  <path d="M26.7,16.5l1-2.5h1.2l-1.8,4.2h-.9L24.4,14h1.2Z" style="fill: #1d1d1b"/>
  <path d="M30.3,14.9v.7h1.2v.9H30.3v.7h1.3v.9H29.2V13.9h2.4v.9Z" style="fill: #1d1d1b"/>
  <path d="M33.9,18.1H32.8V14.9h-.9v-1h2.9v.9h-.9Z" style="fill: #1d1d1b"/>
  <path d="M37.4,13.5h.4v2.4h0a.81.81,0,0,1,.9-.4A1.32,1.32,0,0,1,40,16.8v.1a1.4,1.4,0,0,1-1.2,1.4h0a1.27,1.27,0,0,1-.9-.4h0v.4h-.4V13.5Zm.4,3.3a.89.89,0,0,0,.8,1h.1a.9.9,0,0,0,.9-.9v-.1a.82.82,0,0,0-.8-.9h-.1a.84.84,0,0,0-.9.9Z" style="fill: #1d1d1b"/>
  <path d="M40.1,15.5h.5l.9,1.9.9-1.9h.5L41,19.6h-.5l.8-1.7Z" style="fill: #1d1d1b"/>
  <path d="M47.6,18.1h-1v-.3h0a1,1,0,0,1-.9.4,1.39,1.39,0,0,1-1.4-1.5h0a1.45,1.45,0,0,1,1.4-1.5h0a1.09,1.09,0,0,1,.9.4v-.3h1Zm-2.3-1.4a.66.66,0,0,0,.7.6c.3,0,.5-.3.6-.6a.66.66,0,0,0-.7-.6C45.6,16.2,45.3,16.4,45.3,16.7Z" style="fill: #1d1d1b"/>
  <path d="M49.2,15.6h0a1.19,1.19,0,0,1,.9-.5c.8,0,1.1.5,1.1,1.2v1.8h-1V16.7c0-.3,0-.8-.5-.8s-.5.3-.5.7v1.5h-1V15.2h1Z" style="fill: #1d1d1b"/>
  <path d="M52.8,15.8h0a1.05,1.05,0,0,1,.9-.5h.2v1a.6.6,0,0,0-.4-.1c-.6,0-.7.4-.7.9v1.2h-1V15.5h1Z" style="fill: #1d1d1b"/>
  <path d="M57.3,16.9H55.2a.56.56,0,0,0,.5.6h.1a.76.76,0,0,0,.5-.2h1a1.28,1.28,0,0,1-.5.7,1.49,1.49,0,0,1-.9.2,1.55,1.55,0,0,1-1.7-1.3v-.3a1.56,1.56,0,0,1,1.7-1.4,1.72,1.72,0,0,1,1.4,1.7Zm-.9-.6a.57.57,0,0,0-.7-.4c-.2.1-.4.2-.4.4Z" style="fill: #1d1d1b"/>
  <path d="M59.6,16a1.27,1.27,0,0,0-.6-.1c-.1,0-.3,0-.3.2s.3.2.5.2c.5.1.8.3.8.8a1.16,1.16,0,0,1-1.3,1.1,2,2,0,0,1-1.1-.3l.4-.7a1.14,1.14,0,0,0,.8.3c.1,0,.3-.1.3-.2s-.4-.3-.7-.3a.64.64,0,0,1-.6-.8c0-.7.6-1,1.3-1a2.92,2.92,0,0,1,.9.2Z" style="fill: #1d1d1b"/>
  <path d="M61.6,14.2a.65.65,0,0,1-.6.6.58.58,0,0,1-.6-.6h0a.65.65,0,0,1,.6-.6.58.58,0,0,1,.6.6Zm0,3.9H60.5V15.2h1Z" style="fill: #1d1d1b"/>
  <path d="M64,16a1.09,1.09,0,0,0-.5-.1c-.1,0-.3,0-.3.2s.3.2.5.2c.5.1.8.3.8.8a1.16,1.16,0,0,1-1.3,1.1,2.66,2.66,0,0,1-1.2-.3l.4-.7a1.14,1.14,0,0,0,.8.3c.1,0,.3-.1.3-.2s-.4-.3-.7-.3a.64.64,0,0,1-.6-.8c0-.7.6-1,1.3-1a2.92,2.92,0,0,1,.9.2Z" style="fill: #1d1d1b"/>
</svg>
