<svg id="Layer_1" data-name="Layer 1" xmlns="http://www.w3.org/2000/svg" width="38" height="32" viewBox="0 0 38 32">
  <title>logo-infect-vet-export</title>
  <path d="M13.6,14.65a4.5,4.5,0,0,1,0-9h7v9Z" style="fill: #d62486"/>
  <path d="M28.74,14.65a4.5,4.5,0,1,0,0-9H21.82v9Z" style="fill: #d62486"/>
  <path d="M14.89,2.8a1.35,1.35,0,1,1-1.35-1.35A1.34,1.34,0,0,1,14.89,2.8Z" style="fill: #d62486"/>
  <path d="M13.13,4.87a.41.41,0,0,1,.4-.42h0a.42.42,0,0,1,.42.42h0a.41.41,0,0,1-.41.41h0A.41.41,0,0,1,13.13,4.87Zm-1.34-.31a.41.41,0,0,1,0-.57l0,0h0a.41.41,0,0,1,.58,0h0a.41.41,0,0,1,0,.57l0,0h0a.4.4,0,0,1-.29.12h0A.4.4,0,0,1,11.79,4.56Zm2.92,0a.41.41,0,0,1,0-.58h0a.41.41,0,0,1,.58,0h0a.41.41,0,0,1,0,.58h0a.39.39,0,0,1-.29.13h0a.37.37,0,0,1-.3-.14ZM11.06,2.8a.41.41,0,0,1,.4-.42h0a.42.42,0,0,1,.42.42h0a.42.42,0,0,1-.42.42h0a.41.41,0,0,1-.41-.41Zm4.14,0h0a.4.4,0,0,1,.39-.41h0a.41.41,0,0,1,.42.4h0a.41.41,0,0,1-.41.41h0A.41.41,0,0,1,15.2,2.8ZM11.78,1.63a.42.42,0,0,1,0-.59h0a.42.42,0,0,1,.59,0h0a.42.42,0,0,1,0,.59h0a.4.4,0,0,1-.29.12h0A.42.42,0,0,1,11.78,1.63Zm2.93,0h0a.42.42,0,0,1,0-.59h0a.41.41,0,0,1,.57,0l0,0h0a.41.41,0,0,1,0,.58h0a.39.39,0,0,1-.3.13h0A.4.4,0,0,1,14.71,1.63ZM13.12.73a.42.42,0,0,1,.42-.42h0A.41.41,0,0,1,14,.67V.73h0a.41.41,0,0,1-.41.41h0a.42.42,0,0,1-.47-.35Z" style="fill: #d62486"/>
  <path d="M20.68,2.8a1.35,1.35,0,1,1-1.35-1.35A1.34,1.34,0,0,1,20.68,2.8Z" style="fill: #d62486"/>
  <path d="M18.92,4.87a.41.41,0,0,1,.4-.42h0a.42.42,0,0,1,.42.42h0a.41.41,0,0,1-.41.41h0A.41.41,0,0,1,18.92,4.87Zm-1.34-.31a.41.41,0,0,1,0-.57l0,0h0a.41.41,0,0,1,.58,0h0a.41.41,0,0,1,0,.58h0a.42.42,0,0,1-.3.12h0A.36.36,0,0,1,17.58,4.56Zm2.92,0a.41.41,0,0,1,0-.58h0a.41.41,0,0,1,.58,0h0a.41.41,0,0,1,0,.58h0a.39.39,0,0,1-.29.13h0a.37.37,0,0,1-.3-.14ZM16.85,2.8a.41.41,0,0,1,.4-.42h0a.42.42,0,0,1,.42.42h0a.42.42,0,0,1-.42.42h0a.41.41,0,0,1-.41-.41ZM21,2.8h0a.41.41,0,0,1,.41-.41h0a.41.41,0,0,1,.42.4h0a.41.41,0,0,1-.41.41h0A.41.41,0,0,1,21,2.8ZM17.58,1.63a.42.42,0,0,1,0-.59h0a.42.42,0,0,1,.59,0h0a.42.42,0,0,1,0,.59h0a.4.4,0,0,1-.29.12h0a.43.43,0,0,1-.31-.12Zm2.93,0h0a.42.42,0,0,1,0-.59h0a.41.41,0,0,1,.57,0l0,0h0a.41.41,0,0,1,0,.58h0a.39.39,0,0,1-.3.13h0a.42.42,0,0,1-.3-.12Zm-1.6-.9a.42.42,0,0,1,.42-.42h0a.42.42,0,0,1,.42.42h0a.41.41,0,0,1-.41.41h0a.41.41,0,0,1-.42-.4Z" style="fill: #d62486"/>
  <path d="M15.06,17.5a1.34,1.34,0,1,1-1.34-1.34,1.34,1.34,0,0,1,1.34,1.34Z" style="fill: #d62486"/>
  <path d="M13.3,19.57a.41.41,0,0,1,.41-.41h0a.41.41,0,0,1,.42.4h0a.42.42,0,0,1-.42.42h0A.44.44,0,0,1,13.3,19.57ZM12,19.26a.41.41,0,0,1,0-.58h0a.41.41,0,0,1,.58,0h0a.42.42,0,0,1,0,.59h0a.4.4,0,0,1-.29.12h0A.43.43,0,0,1,12,19.26Zm2.93,0a.42.42,0,0,1,0-.59h0a.42.42,0,0,1,.59,0h0a.42.42,0,0,1,0,.59h0a.42.42,0,0,1-.3.12h0a.41.41,0,0,1-.33-.12Zm-3.66-1.75a.42.42,0,0,1,.42-.42h0a.42.42,0,0,1,.42.42h0a.41.41,0,0,1-.41.41h0a.41.41,0,0,1-.46-.36v0Zm4.14,0h0a.42.42,0,0,1,.42-.42h0a.44.44,0,0,1,.42.42h0a.42.42,0,0,1-.42.42h0a.42.42,0,0,1-.46-.38V17.5ZM12,16.34a.42.42,0,0,1,0-.59h0a.42.42,0,0,1,.59,0h0a.42.42,0,0,1,0,.59h0a.42.42,0,0,1-.3.12h0A.4.4,0,0,1,12,16.34Zm2.93,0h0a.41.41,0,0,1,0-.57l0,0h0a.41.41,0,0,1,.58,0h0a.41.41,0,0,1,0,.57l0,0h0a.4.4,0,0,1-.29.12h0a.41.41,0,0,1-.33-.13Zm-1.59-.89a.42.42,0,0,1,.42-.42h0a.41.41,0,0,1,.41.41h0a.41.41,0,0,1-.4.42h0a.42.42,0,0,1-.46-.38v0Z" style="fill: #d62486"/>
  <path d="M20.68,17.5a1.35,1.35,0,1,1-1.36-1.34h0a1.34,1.34,0,0,1,1.35,1.33Z" style="fill: #d62486"/>
  <path d="M18.92,19.57a.41.41,0,0,1,.41-.41h0a.41.41,0,0,1,.42.4h0a.42.42,0,0,1-.42.42h0a.41.41,0,0,1-.41-.41Zm-1.34-.31a.39.39,0,0,1,0-.55l0,0h0a.4.4,0,0,1,.57,0h0a.41.41,0,0,1,0,.58h0a.42.42,0,0,1-.3.12h0A.37.37,0,0,1,17.58,19.26Zm2.92,0a.42.42,0,0,1,0-.59h0a.42.42,0,0,1,.59,0h0a.42.42,0,0,1,0,.59h0a.4.4,0,0,1-.29.12h0A.42.42,0,0,1,20.5,19.26Zm-3.65-1.75a.41.41,0,0,1,.4-.42h0a.42.42,0,0,1,.42.42h0a.41.41,0,0,1-.41.41h0A.41.41,0,0,1,16.85,17.51Zm4.14,0h0a.41.41,0,0,1,.4-.42h0a.42.42,0,0,1,.42.42h0a.42.42,0,0,1-.42.42h0a.41.41,0,0,1-.4-.42h0Zm-3.42-1.17a.42.42,0,0,1,0-.59h0a.42.42,0,0,1,.59,0h0a.42.42,0,0,1,0,.59h0a.4.4,0,0,1-.29.12h0A.42.42,0,0,1,17.57,16.34Zm2.93,0h0a.42.42,0,0,1,0-.59h0a.42.42,0,0,1,.59,0h0a.42.42,0,0,1,0,.59h0a.42.42,0,0,1-.3.12h0a.41.41,0,0,1-.29-.13Zm-1.59-.89a.42.42,0,0,1,.42-.42h0a.41.41,0,0,1,.42.4h0a.42.42,0,0,1-.42.42h0a.42.42,0,0,1-.42-.42h0Z" style="fill: #d62486"/>
  <path d="M7.24,10.21A1.35,1.35,0,1,1,5.88,8.87h0A1.36,1.36,0,0,1,7.24,10.21Z" style="fill: #d62486"/>
  <path d="M5.48,12.28a.41.41,0,0,1,.4-.42h0a.42.42,0,0,1,.42.42h0a.42.42,0,0,1-.42.42h0a.41.41,0,0,1-.41-.41ZM4.14,12a.41.41,0,0,1,0-.58h0a.41.41,0,0,1,.58,0h0a.41.41,0,0,1,0,.58h0a.4.4,0,0,1-.29.12h0A.4.4,0,0,1,4.14,12Zm2.92,0a.42.42,0,0,1,0-.59h0a.42.42,0,0,1,.59,0h0a.42.42,0,0,1,0,.59h0a.4.4,0,0,1-.29.12h0A.42.42,0,0,1,7.06,12ZM3.41,10.21a.41.41,0,0,1,.41-.41h0a.41.41,0,0,1,.42.4h0a.42.42,0,0,1-.42.42h0a.41.41,0,0,1-.41-.41Zm4.14,0h0A.4.4,0,0,1,8,9.79H8a.41.41,0,0,1,.42.4h0a.42.42,0,0,1-.42.42H8a.41.41,0,0,1-.45-.37ZM4.13,9a.42.42,0,0,1,0-.59h0a.42.42,0,0,1,.59,0h0a.42.42,0,0,1,0,.59h0a.4.4,0,0,1-.29.12h0A.42.42,0,0,1,4.13,9ZM7.06,9h0a.42.42,0,0,1,0-.59h0a.42.42,0,0,1,.59,0h0a.42.42,0,0,1,0,.59h0a.42.42,0,0,1-.3.12h0A.4.4,0,0,1,7.06,9ZM5.47,8.1a.42.42,0,0,1,.42-.42h0a.41.41,0,0,1,.41.41h0a.41.41,0,0,1-.4.42h0a.42.42,0,0,1-.42-.38Z" style="fill: #d62486"/>
  <path d="M9.64,4.81A1.35,1.35,0,1,1,8.28,3.47h0A1.34,1.34,0,0,1,9.64,4.8Z" style="fill: #d62486"/>
  <path d="M7.88,6.88a.41.41,0,0,1,.41-.41h0a.41.41,0,0,1,.42.4h0a.42.42,0,0,1-.41.42h0a.42.42,0,0,1-.42-.42ZM6.54,6.57a.41.41,0,0,1,0-.57l0,0h0a.42.42,0,0,1,.59,0h0a.42.42,0,0,1,0,.59h0a.42.42,0,0,1-.3.12h0A.4.4,0,0,1,6.54,6.57Zm2.92,0a.42.42,0,0,1,0-.59h0a.42.42,0,0,1,.59,0h0a.42.42,0,0,1,0,.59h0a.4.4,0,0,1-.29.12h0A.42.42,0,0,1,9.46,6.57ZM5.81,4.82a.41.41,0,0,1,.4-.42h0a.42.42,0,0,1,.42.42h0a.41.41,0,0,1-.41.41h0A.41.41,0,0,1,5.81,4.82Zm4.14,0h0a.41.41,0,0,1,.4-.42h0a.42.42,0,0,1,.42.42h0a.42.42,0,0,1-.42.42h0A.42.42,0,0,1,10,4.81ZM6.53,3.65a.42.42,0,0,1,0-.59h0a.42.42,0,0,1,.59,0h0a.42.42,0,0,1,0,.59h0a.4.4,0,0,1-.29.12h0A.42.42,0,0,1,6.53,3.65Zm2.93,0h0a.42.42,0,0,1,0-.59h0a.42.42,0,0,1,.59,0h0a.42.42,0,0,1,0,.59h0a.42.42,0,0,1-.3.12h0a.41.41,0,0,1-.29-.13Zm-1.59-.9a.41.41,0,0,1,.41-.41h0a.41.41,0,0,1,.42.4h0a.42.42,0,0,1-.42.42h0a.42.42,0,0,1-.42-.42h0Z" style="fill: #d62486"/>
  <path d="M9.64,15.55A1.35,1.35,0,1,1,8.29,14.2a1.34,1.34,0,0,1,1.35,1.35Z" style="fill: #d62486"/>
  <path d="M7.88,17.62a.41.41,0,0,1,.4-.42h0a.42.42,0,0,1,.42.42h0A.41.41,0,0,1,8.3,18h0A.41.41,0,0,1,7.88,17.62Zm-1.34-.31a.41.41,0,0,1,0-.57l0,0h0a.42.42,0,0,1,.59,0h0a.42.42,0,0,1,0,.59h0a.42.42,0,0,1-.3.12h0A.4.4,0,0,1,6.54,17.31Zm2.92,0a.41.41,0,0,1,0-.58h0a.41.41,0,0,1,.57,0l0,0h0a.41.41,0,0,1,0,.58h0a.39.39,0,0,1-.29.13h0a.37.37,0,0,1-.3-.14ZM5.81,15.55a.41.41,0,0,1,.4-.42h0a.42.42,0,0,1,.42.42h0a.42.42,0,0,1-.42.42h0a.41.41,0,0,1-.41-.41Zm4.14,0h0a.41.41,0,0,1,.41-.41h0a.41.41,0,0,1,.42.4h0a.41.41,0,0,1-.41.41h0a.41.41,0,0,1-.36-.41ZM6.53,14.38a.42.42,0,0,1,0-.59h0a.42.42,0,0,1,.59,0h0a.42.42,0,0,1,0,.59h0a.4.4,0,0,1-.29.12h0A.42.42,0,0,1,6.53,14.38Zm2.93,0h0a.42.42,0,0,1,0-.59h0a.41.41,0,0,1,.57,0l0,0h0a.41.41,0,0,1,0,.58h0a.39.39,0,0,1-.3.13h0A.4.4,0,0,1,9.46,14.38Zm-1.59-.9a.42.42,0,0,1,.42-.42h0a.42.42,0,0,1,.42.42h0a.41.41,0,0,1-.41.41h0a.41.41,0,0,1-.42-.4Z" style="fill: #d62486"/>
  <path d="M2.58,31.62H.46V23.48H2.58Z" style="fill: #d62486"/>
  <path d="M4,23.48H6.08l3.88,5h0v-5H12.1v8.14H10l-3.88-5h0v5H4Z" style="fill: #d62486"/>
  <path d="M15.59,25.27v1.36h2.32v1.79H15.59v3.2H13.47V23.48h4.68v1.79Z" style="fill: #d62486"/>
  <path d="M21.44,25.27v1.36h2.39v1.79H21.44v1.41H24v1.79H19.32V23.48H24v1.79Z" style="fill: #d62486"/>
  <path d="M31.08,26.21a2.31,2.31,0,0,0-1.85-.9,2.15,2.15,0,0,0-2.17,2.13v.13a2.11,2.11,0,0,0,2,2.22h.21a2.42,2.42,0,0,0,1.82-.87v2.54a5.93,5.93,0,0,1-1.86.38,4.58,4.58,0,0,1-3.06-1.2,4,4,0,0,1-1.31-3.08,4.24,4.24,0,0,1,1.2-3,4.41,4.41,0,0,1,3.1-1.32,4.78,4.78,0,0,1,1.93.41Z" style="fill: #d62486"/>
  <path d="M35.84,31.62H33.73V25.27H32V23.48h5.61v1.79H35.84Z" style="fill: #d62486"/>
</svg>
